<svg id="visual" viewBox="0 0 900 600" width="900" height="600" xmlns="http://www.w3.org/2000/svg" xmlns:xlink="http://www.w3.org/1999/xlink" version="1.1"><rect x="0" y="0" width="900" height="600" fill="#f0efed"></rect><g transform="translate(456.71469365400606 259.1211035901148)"><path d="M33.2 -65.7C44.4 -44.5 55.9 -37.6 77.3 -25.2C98.7 -12.8 130 5.2 135.8 25.1C141.6 44.9 121.8 66.7 98.9 76.2C75.9 85.8 49.8 83.2 18.7 116.4C-12.4 149.7 -48.5 218.8 -69.5 220.2C-90.6 221.6 -96.7 155.3 -88.8 108.2C-80.9 61.2 -59 33.2 -74.5 3.5C-89.9 -26.2 -142.8 -57.8 -149.5 -78.7C-156.2 -99.6 -116.7 -110 -84.1 -121.4C-51.5 -132.9 -25.8 -145.4 -7.4 -133.9C11 -122.4 22 -86.9 33.2 -65.7" fill="#a9b4a6"></path></g></svg>