<svg id="visual" viewBox="0 0 900 600" width="900" height="600" xmlns="http://www.w3.org/2000/svg" xmlns:xlink="http://www.w3.org/1999/xlink" version="1.1"><rect x="0" y="0" width="900" height="600" fill="#f0efed"></rect><g transform="translate(472.2144903096914 345.2833736242088)"><path d="M133.5 -172.8C165 -132.7 177 -83 175.2 -38.9C173.4 5.1 157.7 43.6 128.3 55C99 66.4 55.9 50.8 23.2 61.9C-9.5 73 -31.7 110.7 -77.2 129.9C-122.6 149 -191.2 149.5 -212.2 119.4C-233.3 89.4 -206.7 28.8 -178.6 -14.2C-150.4 -57.2 -120.5 -82.6 -90.5 -123C-60.4 -163.3 -30.2 -218.7 10.4 -231.1C51 -243.4 102 -212.9 133.5 -172.8" fill="#a9b4a6"></path></g></svg>