<svg id="visual" viewBox="0 0 900 600" width="900" height="600" xmlns="http://www.w3.org/2000/svg" xmlns:xlink="http://www.w3.org/1999/xlink" version="1.1"><rect x="0" y="0" width="900" height="600" fill="#f0efed"></rect><g transform="translate(429.39577744509864 282.71627690791433)"><path d="M104.7 -126.1C121.9 -110.3 112.6 -64.2 132.1 -14.4C151.5 35.5 199.6 89.3 198.7 137.2C197.8 185.2 148 227.5 104.6 209.5C61.2 191.5 24.2 113.4 -23.1 86.3C-70.3 59.2 -127.8 83.1 -146.2 73.6C-164.6 64.1 -143.8 21.2 -145.1 -34.9C-146.3 -91.1 -169.6 -160.4 -149.1 -175.7C-128.6 -190.9 -64.3 -151.9 -10.3 -139.7C43.7 -127.4 87.4 -141.8 104.7 -126.1" fill="#a9b4a6"></path></g></svg>