<svg id="visual" viewBox="0 0 900 600" width="900" height="600" xmlns="http://www.w3.org/2000/svg" xmlns:xlink="http://www.w3.org/1999/xlink" version="1.1"><rect x="0" y="0" width="900" height="600" fill="#f0efed"></rect><g transform="translate(420.29675437424027 307.63630854304273)"><path d="M119.5 -127.9C168.8 -101.1 232.1 -76.6 219.9 -52.5C207.8 -28.5 120.1 -4.9 82.5 35.6C44.8 76.1 57.1 133.4 43.8 152.1C30.4 170.7 -8.6 150.7 -56.4 139.8C-104.2 128.9 -160.8 127.2 -162 103.8C-163.3 80.4 -109.2 35.4 -80.9 5C-52.6 -25.4 -50.1 -41 -40.9 -74.9C-31.7 -108.8 -15.9 -160.9 9.6 -172.4C35.1 -183.9 70.3 -154.8 119.5 -127.9" fill="#a9b4a6"></path></g></svg>