<svg id="visual" viewBox="0 0 900 600" width="900" height="600" xmlns="http://www.w3.org/2000/svg" xmlns:xlink="http://www.w3.org/1999/xlink" version="1.1"><path d="M0 55L13.7 53C27.3 51 54.7 47 82 44C109.3 41 136.7 39 163.8 42C191 45 218 53 245.2 57C272.3 61 299.7 61 327 60C354.3 59 381.7 57 409 57C436.3 57 463.7 59 491 58C518.3 57 545.7 53 573 51C600.3 49 627.7 49 654.8 51C682 53 709 57 736.2 58C763.3 59 790.7 57 818 53C845.3 49 872.7 43 886.3 40L900 37L900 0L886.3 0C872.7 0 845.3 0 818 0C790.7 0 763.3 0 736.2 0C709 0 682 0 654.8 0C627.7 0 600.3 0 573 0C545.7 0 518.3 0 491 0C463.7 0 436.3 0 409 0C381.7 0 354.3 0 327 0C299.7 0 272.3 0 245.2 0C218 0 191 0 163.8 0C136.7 0 109.3 0 82 0C54.7 0 27.3 0 13.7 0L0 0Z" fill="#c3cbc1"></path><path d="M0 163L13.7 183C27.3 203 54.7 243 82 256C109.3 269 136.7 255 163.8 247C191 239 218 237 245.2 221C272.3 205 299.7 175 327 170C354.3 165 381.7 185 409 193C436.3 201 463.7 197 491 195C518.3 193 545.7 193 573 197C600.3 201 627.7 209 654.8 209C682 209 709 201 736.2 196C763.3 191 790.7 189 818 199C845.3 209 872.7 231 886.3 242L900 253L900 35L886.3 38C872.7 41 845.3 47 818 51C790.7 55 763.3 57 736.2 56C709 55 682 51 654.8 49C627.7 47 600.3 47 573 49C545.7 51 518.3 55 491 56C463.7 57 436.3 55 409 55C381.7 55 354.3 57 327 58C299.7 59 272.3 59 245.2 55C218 51 191 43 163.8 40C136.7 37 109.3 39 82 42C54.7 45 27.3 49 13.7 51L0 53Z" fill="#bac3b8"></path><path d="M0 253L13.7 264C27.3 275 54.7 297 82 304C109.3 311 136.7 303 163.8 295C191 287 218 279 245.2 270C272.3 261 299.7 251 327 247C354.3 243 381.7 245 409 252C436.3 259 463.7 271 491 270C518.3 269 545.7 255 573 254C600.3 253 627.7 265 654.8 274C682 283 709 289 736.2 280C763.3 271 790.7 247 818 251C845.3 255 872.7 287 886.3 303L900 319L900 251L886.3 240C872.7 229 845.3 207 818 197C790.7 187 763.3 189 736.2 194C709 199 682 207 654.8 207C627.7 207 600.3 199 573 195C545.7 191 518.3 191 491 193C463.7 195 436.3 199 409 191C381.7 183 354.3 163 327 168C299.7 173 272.3 203 245.2 219C218 235 191 237 163.8 245C136.7 253 109.3 267 82 254C54.7 241 27.3 201 13.7 181L0 161Z" fill="#b2bcaf"></path><path d="M0 337L13.7 343C27.3 349 54.7 361 82 363C109.3 365 136.7 357 163.8 348C191 339 218 329 245.2 323C272.3 317 299.7 315 327 311C354.3 307 381.7 301 409 309C436.3 317 463.7 339 491 344C518.3 349 545.7 337 573 328C600.3 319 627.7 313 654.8 315C682 317 709 327 736.2 325C763.3 323 790.7 309 818 314C845.3 319 872.7 343 886.3 355L900 367L900 317L886.3 301C872.7 285 845.3 253 818 249C790.7 245 763.3 269 736.2 278C709 287 682 281 654.8 272C627.7 263 600.3 251 573 252C545.7 253 518.3 267 491 268C463.7 269 436.3 257 409 250C381.7 243 354.3 241 327 245C299.7 249 272.3 259 245.2 268C218 277 191 285 163.8 293C136.7 301 109.3 309 82 302C54.7 295 27.3 273 13.7 262L0 251Z" fill="#a9b4a6"></path><path d="M0 433L13.7 433C27.3 433 54.7 433 82 432C109.3 431 136.7 429 163.8 419C191 409 218 391 245.2 384C272.3 377 299.7 381 327 379C354.3 377 381.7 369 409 372C436.3 375 463.7 389 491 391C518.3 393 545.7 383 573 387C600.3 391 627.7 409 654.8 417C682 425 709 423 736.2 423C763.3 423 790.7 425 818 432C845.3 439 872.7 451 886.3 457L900 463L900 365L886.3 353C872.7 341 845.3 317 818 312C790.7 307 763.3 321 736.2 323C709 325 682 315 654.8 313C627.7 311 600.3 317 573 326C545.7 335 518.3 347 491 342C463.7 337 436.3 315 409 307C381.7 299 354.3 305 327 309C299.7 313 272.3 315 245.2 321C218 327 191 337 163.8 346C136.7 355 109.3 363 82 361C54.7 359 27.3 347 13.7 341L0 335Z" fill="#99a497"></path><path d="M0 481L13.7 482C27.3 483 54.7 485 82 482C109.3 479 136.7 471 163.8 457C191 443 218 423 245.2 420C272.3 417 299.7 431 327 432C354.3 433 381.7 421 409 419C436.3 417 463.7 425 491 430C518.3 435 545.7 437 573 447C600.3 457 627.7 475 654.8 481C682 487 709 481 736.2 481C763.3 481 790.7 487 818 490C845.3 493 872.7 493 886.3 493L900 493L900 461L886.3 455C872.7 449 845.3 437 818 430C790.7 423 763.3 421 736.2 421C709 421 682 423 654.8 415C627.7 407 600.3 389 573 385C545.7 381 518.3 391 491 389C463.7 387 436.3 373 409 370C381.7 367 354.3 375 327 377C299.7 379 272.3 375 245.2 382C218 389 191 407 163.8 417C136.7 427 109.3 429 82 430C54.7 431 27.3 431 13.7 431L0 431Z" fill="#8a9488"></path><path d="M0 601L13.7 601C27.3 601 54.7 601 82 601C109.3 601 136.7 601 163.8 601C191 601 218 601 245.2 601C272.3 601 299.7 601 327 601C354.3 601 381.7 601 409 601C436.3 601 463.7 601 491 601C518.3 601 545.7 601 573 601C600.3 601 627.7 601 654.8 601C682 601 709 601 736.2 601C763.3 601 790.7 601 818 601C845.3 601 872.7 601 886.3 601L900 601L900 491L886.3 491C872.7 491 845.3 491 818 488C790.7 485 763.3 479 736.2 479C709 479 682 485 654.8 479C627.7 473 600.3 455 573 445C545.7 435 518.3 433 491 428C463.7 423 436.3 415 409 417C381.7 419 354.3 431 327 430C299.7 429 272.3 415 245.2 418C218 421 191 441 163.8 455C136.7 469 109.3 477 82 480C54.7 483 27.3 481 13.7 480L0 479Z" fill="#7b8579"></path></svg>